<?xml version="1.0" encoding="UTF-8" standalone="no"?>
<svg
   xmlns:dc="http://purl.org/dc/elements/1.1/"
   xmlns:cc="http://creativecommons.org/ns#"
   xmlns:rdf="http://www.w3.org/1999/02/22-rdf-syntax-ns#"
   xmlns:svg="http://www.w3.org/2000/svg"
   xmlns="http://www.w3.org/2000/svg"
   xmlns:xlink="http://www.w3.org/1999/xlink"
   xmlns:sodipodi="http://sodipodi.sourceforge.net/DTD/sodipodi-0.dtd"
   xmlns:inkscape="http://www.inkscape.org/namespaces/inkscape"
   sodipodi:docname="icon.svg"
   inkscape:version="1.0beta2 (2b71d25, 2019-12-03)"
   id="svg852"
   version="1.1"
   viewBox="0 0 16.933333 16.933334"
   height="64"
   width="64">
  <defs
     id="defs846">
    <linearGradient
       id="linearGradient1638"
       inkscape:collect="always">
      <stop
         id="stop1634"
         offset="0"
         style="stop-color:#00ff00;stop-opacity:1;" />
      <stop
         id="stop1636"
         offset="1"
         style="stop-color:#00ff00;stop-opacity:0;" />
    </linearGradient>
    <radialGradient
       gradientUnits="userSpaceOnUse"
       gradientTransform="matrix(1.0833333,0,0,0.66790168,2.3264264,5.7815454)"
       r="1.676886"
       fy="4.7911038"
       fx="-0.62927926"
       cy="4.7911038"
       cx="-0.62927926"
       id="radialGradient1640"
       xlink:href="#linearGradient1638"
       inkscape:collect="always" />
    <radialGradient
       inkscape:collect="always"
       xlink:href="#linearGradient1638"
       id="radialGradient1640-2"
       cx="-0.62927926"
       cy="4.7911038"
       fx="-0.62927926"
       fy="4.7911038"
       r="1.676886"
       gradientTransform="matrix(1.0833333,0,0,0.66790167,15.956043,5.6671305)"
       gradientUnits="userSpaceOnUse" />
  </defs>
  <sodipodi:namedview
     inkscape:window-maximized="0"
     inkscape:window-y="23"
     inkscape:window-x="0"
     inkscape:window-height="800"
     inkscape:window-width="1440"
     inkscape:guide-bbox="true"
     showguides="true"
     units="px"
     showgrid="false"
     inkscape:document-rotation="0"
     inkscape:current-layer="layer1"
     inkscape:document-units="mm"
     inkscape:cy="32.972973"
     inkscape:cx="32.972973"
     inkscape:zoom="9.25"
     inkscape:pageshadow="2"
     inkscape:pageopacity="0.0"
     borderopacity="1.0"
     bordercolor="#666666"
     pagecolor="#ffffff"
     id="base">
    <sodipodi:guide
       id="guide1588"
       orientation="0,-1"
       position="17.991667,6.3500001" />
    <sodipodi:guide
       id="guide1713"
       orientation="1,0"
       position="-1.2585586,9.4105857" />
  </sodipodi:namedview>
  <metadata
     id="metadata849">
    <rdf:RDF>
      <cc:Work
         rdf:about="">
        <dc:format>image/svg+xml</dc:format>
        <dc:type
           rdf:resource="http://purl.org/dc/dcmitype/StillImage" />
        <dc:title></dc:title>
      </cc:Work>
    </rdf:RDF>
  </metadata>
  <g
     id="layer1"
     inkscape:groupmode="layer"
     inkscape:label="Calque 1">
    <path
       sodipodi:nodetypes="scccccccccccscs"
       inkscape:connector-curvature="0"
       id="path1531"
       d="M 2.4972741,10.58838 C 1.9064638,8.9247012 2.2623498,7.7527554 1.2420779,6.3025578 0.2279855,3.3119889 0.76092771,1.2020344 3.2562299,0.20910906 3.4164939,2.0829339 2.9247111,3.9175069 4.1319482,5.4279001 4.6610318,5.9925754 5.244566,5.9582943 5.8495872,5.6876568 5.5504402,4.7781905 5.8656547,3.7526847 6.0877188,3.0663241 6.8062268,1.5888364 6.9355257,1.5283659 8.5214427,0.81640252 10.107361,1.5184319 10.236659,1.5789021 10.955167,3.05639 c 0.222058,0.6863608 0.537279,1.7118666 0.238131,2.6213328 0.547671,0.1621661 1.095503,0.3227277 1.71764,-0.2597569 C 14.118175,3.9075724 13.626392,2.073 13.786656,0.19917492 16.281958,1.1921003 16.8149,3.3020542 15.800808,6.2926235 14.780536,7.7428213 15.136422,8.9147671 14.545612,10.578445 13.315681,14.041841 10.63713,15.944962 8.5214429,16.851793 6.4057562,15.954897 3.7272049,14.051776 2.4972741,10.58838 Z"
       style="fill:#782020;fill-opacity:1;stroke:#000000;stroke-width:0.269849px;stroke-linecap:butt;stroke-linejoin:miter;stroke-opacity:1" />
    <path
       sodipodi:nodetypes="cccc"
       inkscape:connector-curvature="0"
       id="path1562"
       d="M 1.1836967,8.8099097 C 2.6877679,8.7930703 4.2594686,8.5735877 5.6206691,8.9848413 5.9298389,9.5544657 6.0106799,10.165229 5.8541938,10.967398 4.7576205,9.7885339 2.8591677,9.4105777 1.1836967,8.8099097 Z"
       style="fill:#00ff00;stroke:none;stroke-width:0.26984900000000001px;stroke-linecap:butt;stroke-linejoin:miter;stroke-opacity:1" />
    <path
       style="fill:#00ff00;stroke:none;stroke-width:0.26984900000000001px;stroke-linecap:butt;stroke-linejoin:miter;stroke-opacity:1"
       d="m 15.862059,8.8010461 c -1.504071,-0.01684 -3.075772,-0.236322 -4.436973,0.1749316 -0.309169,0.5696244 -0.39001,1.1803883 -0.233524,1.9825573 1.096573,-1.1788651 2.995027,-1.5568209 4.670497,-2.1574889 z"
       id="path1562-1"
       inkscape:connector-curvature="0"
       sodipodi:nodetypes="cccc" />
    <ellipse
       ry="0.9725225"
       rx="1.6733108"
       cy="8.9815321"
       cx="1.6447072"
       id="path1632"
       style="opacity:0.84;fill:url(#radialGradient1640);fill-opacity:1;stroke:none;stroke-width:0.290759;stroke-opacity:1" />
    <ellipse
       style="opacity:0.84;fill:url(#radialGradient1640-2);fill-opacity:1;stroke:none;stroke-width:0.290759;stroke-opacity:1"
       id="path1632-5"
       cx="15.274324"
       cy="8.8671169"
       rx="1.6733108"
       ry="0.9725225" />
    <path
       sodipodi:nodetypes="cc"
       inkscape:connector-curvature="0"
       id="path1697"
       d="M 7.0078827,3.3752252 C 8.0602087,2.6600668 9.2639441,2.7274028 10.011261,3.4610365"
       style="fill:none;stroke:#000000;stroke-width:0.264583px;stroke-linecap:butt;stroke-linejoin:miter;stroke-opacity:1" />
    <path
       sodipodi:nodetypes="cc"
       inkscape:connector-curvature="0"
       id="path1699"
       d="M 6.9220719,5.1486485 C 8.4058526,3.5486926 10.413524,5.113111 10.468919,5.1772524"
       style="fill:none;stroke:#000000;stroke-width:0.264583px;stroke-linecap:butt;stroke-linejoin:miter;stroke-opacity:1" />
    <path
       sodipodi:nodetypes="cc"
       inkscape:connector-curvature="0"
       id="path1701"
       d="m 15.846396,2.0022522 c -0.07507,0.655851 -0.508023,1.1071912 -1.11554,1.4587843"
       style="fill:none;stroke:#000000;stroke-width:0.264583px;stroke-linecap:butt;stroke-linejoin:miter;stroke-opacity:1" />
    <path
       sodipodi:nodetypes="cc"
       inkscape:connector-curvature="0"
       id="path1703"
       d="M 16.103829,3.3180181 C 15.694098,4.1307017 14.900735,4.2818134 14.902477,4.3763513"
       style="fill:none;stroke:#000000;stroke-width:0.264583px;stroke-linecap:butt;stroke-linejoin:miter;stroke-opacity:1" />
    <path
       sodipodi:nodetypes="cc"
       inkscape:connector-curvature="0"
       id="path1705"
       d="M 1.0297298,2.088063 C 1.4587837,3.4038293 2.374099,3.4610365 2.374099,3.4610365"
       style="fill:none;stroke:#000000;stroke-width:0.264583px;stroke-linecap:butt;stroke-linejoin:miter;stroke-opacity:1" />
    <path
       sodipodi:nodetypes="cc"
       inkscape:connector-curvature="0"
       id="path1707"
       d="M 0.80090088,3.4896395 C 1.4587838,4.3477474 2.0308558,4.2333333 2.0308558,4.2333333"
       style="fill:none;stroke:#000000;stroke-width:0.264583px;stroke-linecap:butt;stroke-linejoin:miter;stroke-opacity:1" />
    <path
       inkscape:connector-curvature="0"
       id="path1717"
       d="m 2.8889639,11.527252 c 0.093824,0.36456 0.5330661,0.549536 0.8581081,0.657883"
       style="fill:none;stroke:#000000;stroke-width:0.264583px;stroke-linecap:butt;stroke-linejoin:miter;stroke-opacity:1" />
    <path
       sodipodi:nodetypes="cc"
       inkscape:connector-curvature="0"
       id="path1727"
       d="m 4.261937,13.758333 c 0.3669297,0.111062 0.6557117,0.0649 1.0297296,-0.02861"
       style="fill:none;stroke:#000000;stroke-width:0.264583px;stroke-linecap:butt;stroke-linejoin:miter;stroke-opacity:1" />
    <path
       inkscape:connector-curvature="0"
       id="path1731"
       d="m 2.4972741,10.58838 c 0.00661,0.05552 -0.0183,0.125686 0.019843,0.166575 0.4182916,0.448405 0.8575071,0.438538 1.4301803,0.486261"
       style="fill:none;stroke:#000000;stroke-width:0.264583px;stroke-linecap:butt;stroke-linejoin:miter;stroke-opacity:1" />
    <path
       sodipodi:nodetypes="cccc"
       inkscape:connector-curvature="0"
       id="path1735"
       d="m 5.2058559,14.645041 c 0.057207,0.0095 -0.05502,-0.01834 0,0 0.060677,0.02022 0.1104902,0.067 0.1716214,0.08581 0.2286508,0.07035 0.5435899,-0.0075 0.7436938,-0.0286"
       style="fill:none;stroke:#000000;stroke-width:0.264583px;stroke-linecap:butt;stroke-linejoin:miter;stroke-opacity:1" />
    <path
       sodipodi:nodetypes="ccc"
       inkscape:connector-curvature="0"
       id="path1739"
       d="m 6.7218467,15.903603 c 0.015473,-0.15849 0.4394877,-0.182054 0.5148648,-0.257432 0.3281373,-0.328137 0.3823102,-1.003724 0.4576578,-1.144144"
       style="fill:none;stroke:#000000;stroke-width:0.265;stroke-linecap:round;stroke-linejoin:miter;stroke-opacity:1;stroke-miterlimit:4;stroke-dasharray:none" />
    <use
       height="100%"
       width="100%"
       transform="matrix(-1,0,0,1,16.940324,0)"
       id="use1741"
       xlink:href="#path1717"
       y="0"
       x="0" />
    <use
       height="100%"
       width="100%"
       transform="matrix(-1,0,0,1,16.940324,0)"
       id="use1743"
       xlink:href="#path1727"
       y="0"
       x="0" />
    <use
       height="100%"
       width="100%"
       transform="matrix(-1,0,0,1,16.940324,0)"
       id="use1745"
       xlink:href="#path1731"
       y="0"
       x="0" />
    <use
       height="100%"
       width="100%"
       transform="matrix(-1,0,0,1,16.940324,0)"
       id="use1747"
       xlink:href="#path1735"
       y="0"
       x="0" />
    <use
       height="100%"
       width="100%"
       transform="matrix(-1,0,0,1,16.940324,0)"
       id="use1749"
       xlink:href="#path1739"
       y="0"
       x="0" />
  </g>
</svg>
